<?xml version="1.0" encoding="UTF-8"?>
<svg version="1.1" xmlns="http://www.w3.org/2000/svg" width="1600" height="1600">
<path d="M0 0 C528 0 1056 0 1600 0 C1600 528 1600 1056 1600 1600 C1072 1600 544 1600 0 1600 C0 1072 0 544 0 0 Z " fill="#0B0B0B" transform="translate(0,0)"/>
<path d="M0 0 C83.82 0 167.64 0 254 0 C252.60551621 4.18345136 251.34526432 7.52694577 249.34765625 11.3515625 C248.56201294 12.86085327 248.56201294 12.86085327 247.76049805 14.40063477 C247.20015869 15.46467529 246.63981934 16.52871582 246.0625 17.625 C245.48346924 18.73222412 244.90443848 19.83944824 244.30786133 20.98022461 C240.24268804 28.72290862 236.05816279 36.39357399 231.8125 44.03833008 C228.7711593 49.53575348 225.89684789 55.09207229 223.11889648 60.72631836 C215.87860351 75.38650566 208.1544333 89.79994884 200.29882812 104.13769531 C194.41610697 114.87618037 188.63024899 125.65600294 183.1875 136.625 C176.18987743 150.72651124 168.88905077 164.67304738 161.25 178.4375 C157.72019393 184.79872455 154.33602563 191.2013146 151.11914062 197.72583008 C143.87874857 212.38617301 136.15452165 226.79978758 128.29882812 241.13769531 C122.41610697 251.87618037 116.63024899 262.65600294 111.1875 273.625 C104.18987743 287.72651124 96.88905077 301.67304738 89.25 315.4375 C85.72019393 321.79872455 82.33602563 328.2013146 79.11914062 334.72583008 C71.87874857 349.38617301 64.15452165 363.79978758 56.29882812 378.13769531 C50.41610697 388.87618037 44.63024899 399.65600294 39.1875 410.625 C32.18987743 424.72651124 24.88905077 438.67304738 17.25 452.4375 C13.72019393 458.79872455 10.33602563 465.2013146 7.11914062 471.72583008 C-0.12125143 486.38617301 -7.84547835 500.79978758 -15.70117188 515.13769531 C-21.58389303 525.87618037 -27.36975101 536.65600294 -32.8125 547.625 C-39.81012257 561.72651124 -47.11094923 575.67304738 -54.75 589.4375 C-58.27980607 595.79872455 -61.66397437 602.2013146 -64.88085938 608.72583008 C-72.12125143 623.38617301 -79.84547835 637.79978758 -87.70117188 652.13769531 C-93.58389303 662.87618037 -99.36975101 673.65600294 -104.8125 684.625 C-111.81012257 698.72651124 -119.11094923 712.67304738 -126.75 726.4375 C-130.27980607 732.79872455 -133.66397437 739.2013146 -136.88085938 745.72583008 C-144.12125143 760.38617301 -151.84547835 774.79978758 -159.70117188 789.13769531 C-165.58389303 799.87618037 -171.36975101 810.65600294 -176.8125 821.625 C-184.24420694 836.601272 -192.00451805 851.41406795 -200.17114258 866.00292969 C-203.65632742 872.25800828 -206.78589583 878.57179166 -210 885 C-294.15 885 -378.3 885 -465 885 C-455.7864906 866.57298121 -455.7864906 866.57298121 -452.8515625 860.88671875 C-452.3434201 859.89955872 -452.3434201 859.89955872 -451.82501221 858.89245605 C-450.75949733 856.82353906 -449.69242957 854.7554297 -448.625 852.6875 C-448.25360901 851.96744781 -447.88221802 851.24739563 -447.49957275 850.50552368 C-440.64536994 837.21832503 -433.74949232 823.95660846 -426.66015625 810.79296875 C-425.41898565 808.48713265 -424.17811026 806.18113763 -422.9375 803.875 C-422.62330109 803.29114532 -422.30910217 802.70729065 -421.98538208 802.10574341 C-416.26459566 791.46474232 -410.7232477 780.73637798 -405.21575928 769.98376465 C-400.93761062 761.63612249 -396.6044587 753.33323476 -392.0625 745.125 C-386.80461876 735.61983607 -381.82804629 725.97872919 -376.875 716.3125 C-376.48131226 715.54430939 -376.08762451 714.77611877 -375.68200684 713.98464966 C-374.14302954 710.98129362 -372.60422771 707.97784777 -371.06576538 704.97422791 C-365.70989637 694.52322443 -360.23224803 684.14013752 -354.6640625 673.80078125 C-353.42158109 671.49234495 -352.17932687 669.18378829 -350.9375 666.875 C-350.62321045 666.29096405 -350.3089209 665.7069281 -349.98510742 665.10519409 C-344.26440714 654.46437868 -338.72315458 643.73619616 -333.21575928 632.98376465 C-328.93761062 624.63612249 -324.6044587 616.33323476 -320.0625 608.125 C-314.80461876 598.61983607 -309.82804629 588.97872919 -304.875 579.3125 C-304.48131226 578.54430939 -304.08762451 577.77611877 -303.68200684 576.98464966 C-302.14302954 573.98129362 -300.60422771 570.97784777 -299.06576538 567.97422791 C-293.70989637 557.52322443 -288.23224803 547.14013752 -282.6640625 536.80078125 C-281.42158109 534.49234495 -280.17932687 532.18378829 -278.9375 529.875 C-278.62321045 529.29096405 -278.3089209 528.7069281 -277.98510742 528.10519409 C-272.26440714 517.46437868 -266.72315458 506.73619616 -261.21575928 495.98376465 C-256.93761062 487.63612249 -252.6044587 479.33323476 -248.0625 471.125 C-242.80461876 461.61983607 -237.82804629 451.97872919 -232.875 442.3125 C-232.48131226 441.54430939 -232.08762451 440.77611877 -231.68200684 439.98464966 C-230.14302954 436.98129362 -228.60422771 433.97784777 -227.06576538 430.97422791 C-221.70989637 420.52322443 -216.23224803 410.14013752 -210.6640625 399.80078125 C-209.42158109 397.49234495 -208.17932687 395.18378829 -206.9375 392.875 C-206.62321045 392.29096405 -206.3089209 391.7069281 -205.98510742 391.10519409 C-200.26440714 380.46437868 -194.72315458 369.73619616 -189.21575928 358.98376465 C-184.93761062 350.63612249 -180.6044587 342.33323476 -176.0625 334.125 C-170.80461876 324.61983607 -165.82804629 314.97872919 -160.875 305.3125 C-160.48131226 304.54430939 -160.08762451 303.77611877 -159.68200684 302.98464966 C-158.14302954 299.98129362 -156.60422771 296.97784777 -155.06576538 293.97422791 C-149.70989637 283.52322443 -144.23224803 273.14013752 -138.6640625 262.80078125 C-137.42158109 260.49234495 -136.17932687 258.18378829 -134.9375 255.875 C-134.62321045 255.29096405 -134.3089209 254.7069281 -133.98510742 254.10519409 C-128.26440714 243.46437868 -122.72315458 232.73619616 -117.21575928 221.98376465 C-112.93761062 213.63612249 -108.6044587 205.33323476 -104.0625 197.125 C-98.80461876 187.61983607 -93.82804629 177.97872919 -88.875 168.3125 C-88.48131226 167.54430939 -88.08762451 166.77611877 -87.68200684 165.98464966 C-86.14302954 162.98129362 -84.60422771 159.97784777 -83.06576538 156.97422791 C-77.70989637 146.52322443 -72.23224803 136.14013752 -66.6640625 125.80078125 C-65.42158109 123.49234495 -64.17932687 121.18378829 -62.9375 118.875 C-62.62321045 118.29096405 -62.3089209 117.7069281 -61.98510742 117.10519409 C-56.26440714 106.46437868 -50.72315458 95.73619616 -45.21575928 84.98376465 C-40.50179577 75.78574849 -35.68395693 66.66390109 -30.67602539 57.62158203 C-25.04746355 47.38904967 -19.7793512 36.96712765 -14.49243164 26.55517578 C-14.12334183 25.83145782 -13.75425201 25.10773987 -13.37397766 24.36209106 C-12.69455255 23.02980607 -12.01767498 21.69621595 -11.34440613 20.36080933 C-7.79893062 13.41867155 -3.88351367 6.79614893 0 0 Z " fill="#FEFEFE" transform="translate(1073,357)"/>
<path d="M0 0 C205.59 0 411.18 0 623 0 C613.97804054 18.04391892 613.97804054 18.04391892 610.5 24.5 C607.71647619 29.71479322 604.99630931 34.95186303 602.375 40.25 C594.12107977 56.91037256 585.46412052 73.38146488 576.77783203 89.81958008 C573.14914519 96.694398 569.57377833 103.59651091 566 110.5 C561.63967597 118.92254605 557.25755299 127.33236634 552.828125 135.71875 C549.18421829 142.62797572 545.59115506 149.56323894 542 156.5 C537.63965968 164.92253771 533.25755306 173.33236621 528.828125 181.71875 C525.18421829 188.62797572 521.59115506 195.56323894 518 202.5 C513.63965968 210.92253771 509.25755306 219.33236621 504.828125 227.71875 C501.18421829 234.62797572 497.59115506 241.56323894 494 248.5 C489.63965968 256.92253771 485.25755306 265.33236621 480.828125 273.71875 C477.18421829 280.62797572 473.59115506 287.56323894 470 294.5 C465.63965968 302.92253771 461.25755306 311.33236621 456.828125 319.71875 C453.18421829 326.62797572 449.59115506 333.56323894 446 340.5 C441.63965968 348.92253771 437.25755306 357.33236621 432.828125 365.71875 C429.18421829 372.62797572 425.59115506 379.56323894 422 386.5 C417.63965968 394.92253771 413.25755306 403.33236621 408.828125 411.71875 C405.18421829 418.62797572 401.59115506 425.56323894 398 432.5 C393.63965968 440.92253771 389.25755306 449.33236621 384.828125 457.71875 C381.18421829 464.62797572 377.59115506 471.56323894 374 478.5 C369.63965968 486.92253771 365.25755306 495.33236621 360.828125 503.71875 C357.18421823 510.62797583 353.59116849 517.56324579 350 524.5 C345.6226723 532.95499078 341.22523561 541.39827003 336.77978516 549.81762695 C331.13514754 560.51819049 325.57339165 571.26221264 320 582 C319.34 582 318.68 582 318 582 C315.6225069 577.70970986 313.24773424 573.4179233 310.875 569.125 C310.51441498 568.47263367 310.15382996 567.82026733 309.78231812 567.14813232 C304.73176914 558.00545322 299.74171203 548.83377271 294.8125 539.625 C290.47410073 531.52461502 286.0484808 523.48429931 281.5 515.5 C275.63463066 505.20391102 270.00195742 494.79225068 264.40625 484.34765625 C260.7966209 477.61015724 257.13917727 470.89943738 253.47070312 464.19384766 C250.88191447 459.45890852 248.30587315 454.71764469 245.75 449.96484375 C240.23407487 439.71552113 234.62731083 429.54944748 228.73754883 419.51000977 C226.20089812 415.15913978 223.83112495 410.78120761 221.625 406.25 C218.63191873 400.1074294 215.32377314 394.18409287 211.9375 388.25 C205.31757718 376.6437913 198.98533049 364.8946702 192.67578125 353.11767578 C189.63534941 347.46116141 186.55285554 341.82770216 183.47070312 336.19384766 C180.88191447 331.45890852 178.30587315 326.71764469 175.75 321.96484375 C170.23407487 311.71552113 164.62731083 301.54944748 158.73754883 291.51000977 C156.20089812 287.15913978 153.83112495 282.78120761 151.625 278.25 C148.67186201 272.19013291 145.40851359 266.35126995 142.0625 260.5 C136.87272549 251.41827364 131.89167644 242.2440611 127 233 C121.65652661 222.90471643 116.17787139 212.90747825 110.51171875 202.98828125 C106.79033063 196.45497143 103.2548928 189.844849 99.79174805 183.171875 C96.64262542 177.13840954 93.31564633 171.22026331 89.9375 165.3125 C84.54256776 155.86629434 79.39392692 146.30442002 74.3125 136.6875 C67.39141788 123.59499927 60.37096087 110.5786392 52.9765625 97.74609375 C43.91444333 82.01141823 43.91444333 82.01141823 40.5625 75.125 C37.09667889 68.00918372 33.17835118 61.17734884 29.25683594 54.30444336 C24.38473075 45.74086678 19.70051252 37.08425063 15.05200195 28.39770508 C11.05908133 20.9427863 6.99795628 13.53069177 2.84301758 6.16479492 C0 1.10227628 0 1.10227628 0 0 Z " fill="#EB5A15" transform="translate(272,357)"/>
</svg>
